HIERARCHY
ROOT Hips
{
	OFFSET 0.00000 0.00000 0.00000
	CHANNELS 6 Xposition Yposition Zposition Zrotation Yrotation Xrotation 
	JOINT LHipJoint
	{
		OFFSET 0 0 0
		CHANNELS 3 Zrotation Yrotation Xrotation
		JOINT LeftUpLeg
		{
			OFFSET 1.53139 -1.83434 0.76626
			CHANNELS 3 Zrotation Yrotation Xrotation
			JOINT LeftLeg
			{
				OFFSET 2.56112 -7.03663 0.00000
				CHANNELS 3 Zrotation Yrotation Xrotation
				JOINT LeftFoot
				{
					OFFSET 2.59983 -7.14299 0.00000
					CHANNELS 3 Zrotation Yrotation Xrotation
					JOINT LeftToeBase
					{
						OFFSET 0.13742 -0.37757 2.00054
						CHANNELS 3 Zrotation Yrotation Xrotation
						End Site
						{
							OFFSET 0.00000 -0.00000 1.02897
						}
					}
				}
			}
		}
	}
	JOINT RHipJoint
	{
		OFFSET 0 0 0
		CHANNELS 3 Zrotation Yrotation Xrotation
		JOINT RightUpLeg
		{
			OFFSET -1.40122 -1.83435 0.76627
			CHANNELS 3 Zrotation Yrotation Xrotation
			JOINT RightLeg
			{
				OFFSET -2.54052 -6.98003 0.00000
				CHANNELS 3 Zrotation Yrotation Xrotation
				JOINT RightFoot
				{
					OFFSET -2.63179 -7.23079 0.00000
					CHANNELS 3 Zrotation Yrotation Xrotation
					JOINT RightToeBase
					{
						OFFSET -0.24131 -0.66299 2.03908
						CHANNELS 3 Zrotation Yrotation Xrotation
						End Site
						{
							OFFSET -0.00000 -0.00000 1.07391
						}
					}
				}
			}
		}
	}
	JOINT LowerBack
	{
		OFFSET 0 0 0
		CHANNELS 3 Zrotation Yrotation Xrotation
		JOINT Spine
		{
			OFFSET 0.01174 2.10302 -0.29778
			CHANNELS 3 Zrotation Yrotation Xrotation
			JOINT Spine1
			{
				OFFSET 0.00772 2.13227 -0.01247
				CHANNELS 3 Zrotation Yrotation Xrotation
				JOINT Neck
				{
					OFFSET 0 0 0
					CHANNELS 3 Zrotation Yrotation Xrotation
					JOINT Neck1
					{
						OFFSET -0.09219 1.60848 0.31481
						CHANNELS 3 Zrotation Yrotation Xrotation
						JOINT Head
						{
							OFFSET 0.13974 1.65456 -0.31134
							CHANNELS 3 Zrotation Yrotation Xrotation
							End Site
							{
								OFFSET 0.04742 1.69515 -0.14578
							}
						}
					}
				}
				JOINT LeftShoulder
				{
					OFFSET 0 0 0
					CHANNELS 3 Zrotation Yrotation Xrotation
					JOINT LeftArm
					{
						OFFSET 3.24909 1.02882 -0.23993
						CHANNELS 3 Zrotation Yrotation Xrotation
						JOINT LeftForeArm
						{
							OFFSET 5.32955 -0.00000 -0.00000
							CHANNELS 3 Zrotation Yrotation Xrotation
							JOINT LeftHand
							{
								OFFSET 3.69232 -0.00000 -0.00000
								CHANNELS 3 Zrotation Yrotation Xrotation
								JOINT LeftFingerBase
								{
									OFFSET 0 0 0
									CHANNELS 3 Zrotation Yrotation Xrotation
									JOINT LeftHandIndex1
									{
										OFFSET 0.53660 -0.00000 -0.00000
										CHANNELS 3 Zrotation Yrotation Xrotation
										End Site
										{
											OFFSET 0.43262 -0.00000 -0.00000
										}
									}
								}
								JOINT LThumb
								{
									OFFSET 0 0 0
									CHANNELS 3 Zrotation Yrotation Xrotation
									End Site
									{
										OFFSET 0.43922 -0.00000 0.43922
									}
								}
							}
						}
					}
				}
				JOINT RightShoulder
				{
					OFFSET 0 0 0
					CHANNELS 3 Zrotation Yrotation Xrotation
					JOINT RightArm
					{
						OFFSET -3.21387 0.93002 -0.34594
						CHANNELS 3 Zrotation Yrotation Xrotation
						JOINT RightForeArm
						{
							OFFSET -5.23431 -0.00000 0.00000
							CHANNELS 3 Zrotation Yrotation Xrotation
							JOINT RightHand
							{
								OFFSET -3.55301 -0.00000 -0.00000
								CHANNELS 3 Zrotation Yrotation Xrotation
								JOINT RightFingerBase
								{
									OFFSET 0 0 0
									CHANNELS 3 Zrotation Yrotation Xrotation
									JOINT RightHandIndex1
									{
										OFFSET -0.77252 -0.00000 -0.00000
										CHANNELS 3 Zrotation Yrotation Xrotation
										End Site
										{
											OFFSET -0.62283 -0.00000 -0.00000
										}
									}
								}
								JOINT RThumb
								{
									OFFSET 0 0 0
									CHANNELS 3 Zrotation Yrotation Xrotation
									End Site
									{
										OFFSET -0.63234 -0.00000 0.63234
									}
								}
							}
						}
					}
				}
			}
		}
	}
}
MOTION
Frames: 12
Frame Time: .0083333
-14.4218 17.8149 12.1603 0 0 0 0 0 0 -21 0 0 0 0 0 0 0 0 0 0 0 0 0 0 21 0 0 0 0 0 0 0 0 0 0 0 0 0 0 0 0 0 0 0 0 0 0 -16 0 0 21 0 0 11 0 0 0 -8 0 0 0 0 0 0 0 0 0 0 0 0 0 0 0 0 0 0 0 0 8 0 0 0 0 0 0 0 0 0 0 0 0 0 0 0 0 0
-14.4218 17.8149 12.1603 3.3888 3.7420 -3.9424 0.0000 0.0000 0.0000 -21.9280 -3.7465 -8.9528 6.2208 14.6389 45.8615 0.3560 -4.9509 -10.6573 0.6575 -5.1864 -14.4410 0.0000 0.0000 0.0000 19.6934 7.0064 -14.7426 -2.7408 -10.2632 29.8332 -0.1728 1.3536 -7.4920 -0.1231 -2.2617 6.2294 0.0807 -0.4922 11.2683 1.7868 -0.5670 2.7928 1.8921 -0.2779 -3.3826 -14.3852 -5.8657 -10.0326 3.4528 -6.4201 40.5259 3.0071 -4.3812 17.2019 0.0000 -0.0000 0.0000 -89.3818 6.9617 21.0497 18.9470 -29.3528 -5.0049 -0.0000 -0.0000 5.0716 21.0428 23.5069 8.7240 -7.1250 0.0000 -0.0000 -8.6975 54.7565 -2.0962 0.0000 -0.0000 0.0000 86.9358 -2.1720 19.1225 -17.8288 27.9374 -4.4687 0.0000 0.0000 4.8721 -13.2277 7.2872 -1.7078 7.1250 -0.0000 -0.0000 9.8999 -22.5282 5.4306
-14.4175 17.8205 12.1280 3.5073 3.7553 -3.9909 0.0000 0.0000 0.0000 -21.9846 -3.5608 -8.6135 6.4112 14.8153 46.6106 0.2986 -5.3692 -9.8578 0.7156 -5.4059 -15.0699 0.0000 0.0000 0.0000 19.5692 7.1761 -14.6492 -2.7024 -10.1969 29.6169 -0.1601 1.0993 -7.2504 -0.1205 -2.2376 6.1627 -0.1282 -0.5564 11.0785 1.7872 -0.6801 2.9627 2.0213 -0.3354 -3.0952 -14.3833 -5.8059 -10.1162 3.5239 -6.3451 40.5198 3.0517 -4.3407 17.2113 0.0000 0.0000 0.0000 -89.4061 6.7173 21.1077 18.9508 -29.3575 -5.0067 -0.0000 -0.0000 5.5490 20.7427 24.0645 8.7788 -7.1250 0.0000 -0.0000 -9.2387 55.2676 -2.3435 0.0000 0.0000 0.0000 86.9919 -2.0384 18.7088 -17.8602 27.9778 -4.4835 0.0000 0.0000 5.0745 -13.2514 7.2676 -1.7064 7.1250 -0.0000 -0.0000 9.8837 -22.5472 5.4171
-14.4133 17.8250 12.0909 3.4572 3.7872 -4.0547 0.0000 0.0000 0.0000 -21.8278 -3.3615 -8.3206 6.6327 15.0146 47.4711 0.2460 -5.8301 -9.1260 0.8427 -5.8555 -16.3656 0.0000 0.0000 0.0000 19.6199 7.3348 -14.5555 -2.6675 -10.1363 29.4191 -0.1479 0.8052 -7.0219 -0.1309 -2.3323 6.4250 -0.1474 -0.6289 11.0346 1.8138 -0.7787 3.0328 2.0715 -0.3852 -2.9939 -14.2364 -5.7038 -10.1662 3.5083 -6.2180 40.6145 3.0438 -4.2716 17.2481 0.0000 0.0000 0.0000 -89.3685 6.5428 21.2225 18.9454 -29.3507 -5.0040 -0.0000 -0.0000 5.9421 20.3451 24.4014 8.7094 -7.1250 0.0000 -0.0000 -9.7972 55.5308 -2.5500 0.0000 0.0000 0.0000 87.0008 -2.0423 18.4476 -17.8604 27.9780 -4.4836 0.0000 0.0000 4.9186 -13.3362 7.1082 -1.6803 7.1250 -0.0000 -0.0000 9.8303 -22.7056 5.3508
-14.4057 17.8278 12.0497 3.3874 3.8010 -4.0997 0.0000 0.0000 0.0000 -21.6676 -3.1936 -8.0307 6.8497 15.2040 48.3035 0.1801 -6.2027 -8.1323 0.9138 -6.0910 -17.0487 0.0000 0.0000 0.0000 19.6647 7.4988 -14.4867 -2.6338 -10.0772 29.2272 -0.1372 0.5474 -6.8212 -0.1558 -2.5431 7.0091 -0.1149 -0.7031 11.1055 1.8402 -0.8715 3.0152 2.0946 -0.4310 -3.0478 -14.2037 -5.6137 -10.1041 3.5612 -6.1258 40.7188 3.0831 -4.2275 17.2778 0.0000 -0.0000 0.0000 -89.2933 6.5129 21.4214 18.9915 -29.4082 -5.0267 -0.0000 -0.0000 5.9987 20.2387 24.0675 8.5509 -7.1250 0.0000 -0.0000 -9.7625 55.1698 -2.4549 0.0000 -0.0000 0.0000 86.9483 -2.1902 18.3306 -17.8785 28.0014 -4.4921 0.0000 0.0000 4.7226 -13.1376 6.8742 -1.6002 7.1250 -0.0000 -0.0000 9.9873 -22.9485 5.3824
-14.3956 17.8292 12.0114 3.4276 3.8502 -4.1059 0.0000 0.0000 0.0000 -21.6436 -3.0321 -7.7471 7.0662 15.3874 49.1243 0.1054 -6.5668 -6.9106 0.9113 -6.0830 -17.0255 0.0000 0.0000 0.0000 19.5684 7.5658 -14.4798 -2.6005 -10.0183 29.0361 -0.1321 0.3953 -6.7348 -0.1588 -2.5674 7.0766 -0.2037 -0.7910 11.1065 1.8605 -0.9968 2.9949 2.1830 -0.4927 -3.0629 -14.2486 -5.5472 -10.0231 3.6335 -6.0605 40.8172 3.1400 -4.2041 17.3096 0.0000 0.0000 0.0000 -89.2569 6.5670 21.7166 19.1527 -29.6080 -5.1061 -0.0000 -0.0000 5.8527 20.2231 24.1250 8.5627 -7.1250 0.0000 -0.0000 -9.8035 55.2251 -2.4786 0.0000 0.0000 0.0000 86.9186 -2.3504 18.1586 -17.8741 27.9957 -4.4900 0.0000 0.0000 4.7296 -13.0524 6.9081 -1.5972 7.1250 -0.0000 -0.0000 10.0475 -22.9169 5.4232
-14.3880 17.8318 11.9740 3.4808 3.9982 -4.1150 0.0000 0.0000 0.0000 -21.6350 -2.9654 -7.4076 7.2731 15.5577 49.9000 0.0125 -6.9363 -5.1555 0.6758 -5.2567 -14.6422 0.0000 0.0000 0.0000 19.4566 7.5295 -14.5061 -2.5687 -9.9617 28.8529 -0.1248 0.2491 -6.5872 -0.1512 -2.5055 6.9050 -0.3257 -0.9041 11.1141 1.8772 -1.1589 2.9355 2.2921 -0.5720 -3.1197 -14.1360 -5.4621 -9.9713 3.5372 -5.9387 41.0124 3.1029 -4.1578 17.3800 -0.0000 0.0000 0.0000 -89.2194 6.5946 21.9824 19.2403 -29.7162 -5.1494 -0.0000 -0.0000 5.6590 20.3613 24.5320 8.7600 -7.1250 0.0000 -0.0000 -9.8381 55.6669 -2.5934 -0.0000 0.0000 0.0000 86.9243 -2.5259 17.8561 -17.7956 27.8946 -4.4532 0.0000 0.0000 4.8575 -13.3717 7.2359 -1.7150 7.1250 -0.0000 -0.0000 9.7978 -22.5753 5.3623
-14.3826 17.8360 11.9337 3.5211 4.1458 -4.0644 0.0000 0.0000 0.0000 -21.6200 -3.0007 -7.0676 7.4634 15.7100 50.6058 -0.0774 -7.1664 -2.9320 0.3520 -3.8118 -10.5477 0.0000 0.0000 0.0000 19.3542 7.5595 -14.6386 -2.5399 -9.9102 28.6863 -0.1122 0.0890 -6.2948 -0.1429 -2.4362 6.7128 -0.4207 -1.0318 11.0643 1.8751 -1.3385 2.8821 2.3673 -0.6603 -3.1383 -14.0957 -5.3616 -9.9284 3.5439 -5.8116 41.1388 3.1258 -4.1053 17.4212 0.0000 0.0000 0.0000 -89.1262 6.5322 22.2080 19.2715 -29.7546 -5.1649 -0.0000 -0.0000 5.5082 20.6448 24.6752 8.9389 -7.1250 0.0000 -0.0000 -9.6055 55.8706 -2.5789 0.0000 0.0000 0.0000 86.9128 -2.6646 17.7058 -17.7379 27.8202 -4.4262 0.0000 0.0000 4.7838 -13.7295 7.5329 -1.8345 7.1250 -0.0000 -0.0000 9.5237 -22.2616 5.2773
-14.3737 17.8381 11.8901 3.5445 4.2217 -4.0224 0.0000 0.0000 0.0000 -21.6050 -2.9140 -6.7088 7.6322 15.8419 51.2266 -0.1229 -7.0807 -1.0522 0.1880 -2.7925 -7.7016 0.0000 0.0000 0.0000 19.2599 7.6174 -14.8598 -2.5381 -9.9069 28.6758 -0.1032 0.0301 -6.0560 -0.1227 -2.2578 6.2187 -0.4712 -1.1368 11.0147 1.8811 -1.4832 2.8597 2.4204 -0.7319 -3.1265 -14.1461 -5.2708 -9.8488 3.6149 -5.7025 41.1076 3.1883 -4.0607 17.3727 0.0000 -0.0000 0.0000 -89.0401 6.4878 22.4665 19.3790 -29.8869 -5.2184 -0.0000 -0.0000 5.4521 20.5626 24.8014 8.9426 -7.1250 0.0000 -0.0000 -9.7481 55.9820 -2.6441 0.0000 -0.0000 0.0000 86.9189 -2.8106 17.4728 -17.7478 27.8330 -4.4308 0.0000 0.0000 4.7413 -13.7556 7.4564 -1.8196 7.1250 -0.0000 -0.0000 9.5083 -22.3384 5.2516
-14.3614 17.8415 11.8471 3.6342 4.3328 -4.0210 0.0000 0.0000 0.0000 -21.6832 -2.8211 -6.2648 7.7803 15.9553 51.7674 -0.1410 -6.9194 0.4678 0.1359 -2.3763 -6.5469 0.0000 0.0000 0.0000 19.0704 7.5116 -15.0911 -2.5495 -9.9274 28.7420 -0.0927 -0.0244 -5.7572 -0.0967 -2.0059 5.5219 -0.5799 -1.2156 10.9182 1.8835 -1.6006 2.9038 2.4962 -0.7911 -3.0192 -14.1608 -5.2399 -9.8938 3.6297 -5.6510 41.0855 3.2058 -4.0394 17.3658 -0.0000 0.0000 0.0000 -89.0150 6.2965 22.6324 19.4438 -29.9664 -5.2507 -0.0000 -0.0000 5.5658 20.2431 24.9314 8.8361 -7.1250 0.0000 -0.0000 -10.1416 56.0481 -2.7687 -0.0000 0.0000 0.0000 86.9198 -2.9326 17.0786 -17.8170 27.9222 -4.4632 0.0000 0.0000 4.7498 -13.6637 7.0953 -1.7200 7.1250 -0.0000 -0.0000 9.5924 -22.7076 5.2173
-14.3499 17.8445 11.8044 3.7524 4.5027 -4.0814 0.0000 0.0000 0.0000 -21.8090 -2.7291 -5.7065 7.9058 16.0495 52.2227 -0.1597 -7.1211 1.6575 0.2610 -3.2868 -9.0783 0.0000 0.0000 0.0000 18.8995 7.0834 -15.1016 -2.5719 -9.9674 28.8714 -0.0891 -0.0017 -5.6378 -0.0671 -1.6711 4.5976 -0.7294 -1.2813 10.9046 1.8783 -1.7045 2.9192 2.5879 -0.8426 -2.9864 -14.1980 -5.2364 -9.8988 3.6767 -5.6585 41.2144 3.2355 -4.0473 17.4467 -0.0000 0.0000 0.0000 -88.9915 6.1479 22.8634 19.4986 -30.0335 -5.2781 -0.0000 -0.0000 5.6104 20.2676 24.7187 8.7780 -7.1250 0.0000 -0.0000 -10.0192 55.8374 -2.6834 -0.0000 0.0000 0.0000 86.8871 -3.0345 16.6591 -17.7581 27.8463 -4.4357 0.0000 0.0000 4.6585 -13.4018 6.9526 -1.6520 7.1250 -0.0000 -0.0000 9.7906 -22.8609 5.2933
-14.3402 17.8408 11.7588 3.6672 4.6718 -4.1421 0.0000 0.0000 0.0000 -21.6862 -2.5520 -5.1757 8.0186 16.1329 52.6297 -0.1746 -7.3863 2.7162 0.5400 -4.7083 -13.0785 0.0000 0.0000 0.0000 18.9224 6.9267 -15.2017 -2.5876 -9.9954 28.9619 -0.0853 -0.1268 -5.5642 -0.0742 -1.7577 4.8365 -0.6913 -1.3805 10.9583 1.9163 -1.8294 2.8561 2.6254 -0.9033 -3.0754 -14.2123 -5.1706 -9.7143 3.7308 -5.6119 41.3320 3.2778 -4.0307 17.4629 0.0000 0.0000 0.0000 -88.9258 6.1807 23.1412 19.6511 -30.2197 -5.3546 -0.0000 -0.0000 5.5424 20.6307 24.6187 8.9135 -7.1250 0.0000 -0.0000 -9.5952 55.8101 -2.5620 0.0000 0.0000 0.0000 86.8650 -3.3181 16.5864 -17.6573 27.7161 -4.3887 0.0000 0.0000 3.8822 -13.3663 7.2767 -1.7239 7.1250 -0.0000 -0.0000 9.7996 -22.5341 5.3727
